<svg width="100" height="100" viewBox="0 0 198 193" xmlns="http://www.w3.org/2000/svg"> 
 <g>
  <title>Layer 1</title>
  <g>
   <g clip-rule="evenodd" fill-rule="evenodd">
    <path d="m0,-0.00001l192.756,0l0,192.756l-192.756,0l0,-192.756z" fill="#fff"/>
    <path d="m48.07,76.94799l-31.584,0l-7.682,11.876l16.22,0l-16.52,26.791l33.125,0l6.013,-11.148l-17.547,0l17.975,-27.519z"/>
    <path d="m110.512,75.98499c-9.607,0 -17.782,5.649 -20.864,13.524c-3.081,-7.854 -11.277,-13.503 -20.842,-13.503c-12.219,0 -22.169,9.159 -22.169,20.393c0,11.214 9.951,20.372 22.169,20.372c9.586,0 17.782,-5.629 20.864,-13.482c3.082,7.832 11.256,13.482 20.842,13.482c12.197,0 22.17,-9.158 22.17,-20.372c0,-11.255 -9.973,-20.414 -22.17,-20.414zm-41.749,28.482c-4.259,0 -7.704,-3.51 -7.704,-7.811c0,-4.323 3.445,-7.832 7.704,-7.832c4.215,0 7.66,3.509 7.66,7.832c0,4.301 -3.444,7.811 -7.66,7.811zm41.706,-0.022c-4.279,0 -7.703,-3.51 -7.703,-7.789c0,-4.323 3.424,-7.832 7.703,-7.832c4.195,0 7.66,3.509 7.66,7.832c0,4.28 -3.465,7.789 -7.66,7.789z"/>
    <path d="m177.361,76.00599l-14.486,0l-6.313,22.49l-5.798,-22.49l-14.489,0l-5.863,39.609l13.76,0l2.183,-23.303l6.805,23.303l8.195,0l7.106,-23.303l2.609,23.303l13.182,0l-6.891,-39.609z"/>
   </g>
  </g>
  <text font-style="normal" font-weight="normal" xml:space="preserve" text-anchor="start" font-family="'Poppins Extra Bold'" font-size="25" id="svg_18" y="134.82243" x="129.71131" stroke-dasharray="5,5" stroke-width="0" stroke="#000" fill="#000000">ZONE</text>
 </g>
</svg>



